<svg id="xht" xmlns="http://www.w3.org/2000/svg" viewBox="0 0 425.48 128"><title>xht</title><path id="x" d="M79.92,55.17l49.45,68.06h16v4.86H81.07v-4.86h21.86L66.18,72.54,26.09,123.23h25v4.86H.51v-4.86H19.88l43-54.79L16.73,5H.51V.09H64.27V5H43.17L76.58,50.68,113,5H91V.09h46.38V5h-18Z" transform="translate(-0.51 -0.09)"/><path id="h" d="M178.15,123.23V5H158V.09H221.2V5H200.86V59.65h55.27V5H236.18V.09H299V5H278.85V123.23H299v4.86H236.18v-4.86h19.95V64.52H200.86v58.71H221.2v4.86H158v-4.86Z" transform="translate(-0.51 -0.09)"/><path id="t" d="M313.55.09h109.1L426,43.62h-4.87q-4.49-21.85-11.88-30.26T389.82,5H379.41V123.23h22.91v4.86H333.88v-4.86h22.91V5h-10.4q-12,0-19.43,8.4T315.08,43.62h-4.87Z" transform="translate(-0.51 -0.09)"/></svg>